<svg width="42" height="40" viewBox="0 0 42 40" fill="none" xmlns="http://www.w3.org/2000/svg">
<g clip-path="url(#clip0_18_25)">
<path d="M21.668 23.9165C21.7141 24.0957 21.8435 24.2524 22.0279 24.3524C22.2123 24.4523 22.4367 24.4873 22.652 24.4498H22.646L35.962 22.0365C36.0696 22.0174 36.1714 21.9802 36.2612 21.9272C36.3509 21.8742 36.4268 21.8064 36.484 21.7281L36.486 21.7248C36.5461 21.6456 36.5867 21.5572 36.6052 21.4647C36.6238 21.3723 36.6199 21.2777 36.594 21.1865L36.596 21.1915C32.97 10.9098 25.664 3.19145 16.538 -0.0085449H16.46C16.3355 -0.0085699 16.2126 0.0147363 16.1004 0.0596481C15.9882 0.10456 15.8896 0.169927 15.8118 0.250911C15.734 0.331894 15.6791 0.42642 15.6511 0.527489C15.6231 0.628559 15.6227 0.733583 15.65 0.834788L15.648 0.829788L21.668 23.9165ZM8.78999 26.9498L19.308 25.0531C19.5218 25.0148 19.7091 24.9083 19.83 24.7565L19.832 24.7531C19.8943 24.6782 19.9362 24.5929 19.9549 24.5031C19.9735 24.4132 19.9685 24.3211 19.94 24.2331L19.942 24.2381L16.592 11.3831C16.56 11.2475 16.4784 11.1234 16.3585 11.0279C16.2385 10.9325 16.0861 10.8702 15.922 10.8498H15.918C15.882 10.8422 15.8451 10.8383 15.808 10.8381H15.778H15.78C15.6358 10.8381 15.494 10.8694 15.3688 10.929C15.2435 10.9887 15.1392 11.0745 15.066 11.1781L15.064 11.1815L14.83 11.5148C11.714 15.9248 9.01199 19.7398 7.78999 26.1731C7.76979 26.2835 7.78158 26.3963 7.82438 26.5022C7.86717 26.608 7.93973 26.7038 8.03599 26.7815C8.14038 26.8537 8.26265 26.9058 8.39404 26.934C8.52544 26.9623 8.6627 26.966 8.79599 26.9448H8.78999V26.9498ZM7.77199 33.9698C7.94072 33.9672 8.10266 33.914 8.22799 33.8198L8.70799 33.4198C9.6166 32.6677 10.8453 32.2455 12.126 32.2455C13.4067 32.2455 14.6354 32.6677 15.544 33.4198L16.024 33.8198C16.1394 33.9153 16.2953 33.9692 16.458 33.9698H16.478C16.6467 33.9672 16.8087 33.914 16.934 33.8198L17.444 33.3948C18.3492 32.6504 19.5702 32.2336 20.842 32.2348C22.174 32.2348 23.378 32.6831 24.254 33.4065L24.722 33.7965C24.8441 33.8953 25.0059 33.9529 25.176 33.9581H25.178C25.3467 33.9556 25.5087 33.9023 25.634 33.8081L26.102 33.4181C27.0106 32.666 28.2393 32.2439 29.52 32.2439C30.8007 32.2439 32.0294 32.666 32.938 33.4181L33.418 33.8181C33.53 33.9098 33.682 33.9681 33.852 33.9681H33.874H33.872C34.0407 33.9656 34.2027 33.9123 34.328 33.8181L34.808 33.4181C35.2702 33.0333 35.8223 32.7315 36.43 32.5315L36.462 32.5215C36.504 32.4515 36.558 32.3965 36.6 32.3265L41.576 23.8715C41.6492 23.7431 41.6788 23.6006 41.6615 23.4592C41.6442 23.3179 41.5808 23.1832 41.478 23.0698L41.48 23.0715C41.3733 22.9585 41.2306 22.8728 41.0683 22.8242C40.906 22.7756 40.7306 22.766 40.562 22.7965L40.568 22.7948L5.23599 29.1815C5.07751 29.2109 4.92859 29.2687 4.79952 29.3509C4.67046 29.433 4.56432 29.5375 4.48845 29.6571C4.41257 29.7768 4.36877 29.9087 4.36006 30.0438C4.35135 30.179 4.37794 30.3141 4.43799 30.4398L4.43599 30.4331L5.56599 32.8231C6.25799 33.0648 6.84799 33.3998 7.34399 33.8115C7.3886 33.8607 7.44633 33.9006 7.51262 33.9281C7.57891 33.9556 7.65195 33.9699 7.72599 33.9698L7.77599 33.9681H7.77399L7.77199 33.9698ZM40.842 37.4848C40.162 36.9231 39.228 36.5781 38.196 36.5781C37.164 36.5781 36.228 36.9248 35.55 37.4865L35.07 37.8865C34.7469 38.1524 34.3111 38.3015 33.857 38.3015C33.4029 38.3015 32.9671 38.1524 32.644 37.8865L32.164 37.4865C31.484 36.9248 30.55 36.5798 29.518 36.5798C28.486 36.5798 27.55 36.9265 26.872 37.4881L26.404 37.8781C26.0817 38.1433 25.6469 38.2918 25.194 38.2915H25.182C24.9573 38.2917 24.7349 38.2541 24.5281 38.1811C24.3212 38.1081 24.1341 38.0011 23.978 37.8665L23.508 37.4748C22.8019 36.8919 21.8479 36.5654 20.854 36.5665C19.826 36.5665 18.896 36.9081 18.214 37.4631L17.704 37.8881C17.3809 38.1541 16.9451 38.3032 16.491 38.3032C16.0369 38.3032 15.6011 38.1541 15.278 37.8881L14.798 37.4881C14.118 36.9265 13.184 36.5798 12.15 36.5798C11.116 36.5798 10.182 36.9265 9.50199 37.4881L9.02199 37.8881C8.69893 38.1541 8.26311 38.3032 7.80899 38.3032C7.35488 38.3032 6.91905 38.1541 6.59599 37.8881C5.79199 37.2281 4.68599 36.8198 3.46599 36.8198C2.24599 36.8198 1.14199 37.2281 0.335994 37.8881C0.24045 37.9664 0.164569 38.0598 0.112773 38.1628C0.0609771 38.2659 0.0343018 38.3764 0.0343018 38.4881C0.0343018 38.5998 0.0609771 38.7104 0.112773 38.8134C0.164569 38.9164 0.24045 39.0098 0.335994 39.0881C0.525463 39.2475 0.782828 39.3379 1.05199 39.3398H1.05999C1.32506 39.3404 1.57964 39.2535 1.76799 39.0981C1.99028 38.9119 2.25455 38.7641 2.54561 38.6632C2.83667 38.5624 3.14878 38.5104 3.46399 38.5104C3.77921 38.5104 4.09132 38.5624 4.38238 38.6632C4.67344 38.7641 4.93771 38.9119 5.15999 39.0981C5.83999 39.6581 6.77399 40.0048 7.80599 40.0048C8.83799 40.0048 9.77399 39.6581 10.452 39.0981L10.932 38.6981C11.2551 38.4322 11.6909 38.283 12.145 38.283C12.5991 38.283 13.0349 38.4322 13.358 38.6981L13.838 39.0981C14.51 39.6581 15.438 40.0048 16.464 40.0048H16.486H16.484H16.49C17.514 40.0048 18.442 39.6631 19.118 39.1081L19.642 38.6831C19.9651 38.4172 20.4009 38.268 20.855 38.268C21.3091 38.268 21.7449 38.4172 22.068 38.6831L22.536 39.0731C23.212 39.6398 24.148 39.9898 25.182 39.9915H25.204C26.23 39.9915 27.158 39.6448 27.828 39.0848L28.296 38.6948C28.6191 38.4288 29.0549 38.2797 29.509 38.2797C29.9631 38.2797 30.3989 38.4288 30.722 38.6948L31.202 39.0948C31.882 39.6548 32.816 40.0015 33.848 40.0015C34.88 40.0015 35.816 39.6548 36.494 39.0948L36.974 38.6948C37.2971 38.4288 37.7329 38.2797 38.187 38.2797C38.6411 38.2797 39.0769 38.4288 39.4 38.6948C39.582 38.8448 39.832 38.9365 40.11 38.9365H40.132C40.2637 38.9364 40.394 38.9141 40.515 38.8709C40.636 38.8276 40.7452 38.7643 40.836 38.6848C40.9326 38.6072 41.0095 38.5142 41.062 38.4113C41.1146 38.3084 41.1418 38.1978 41.142 38.086C41.1422 37.9742 41.1153 37.8635 41.0631 37.7605C41.0109 37.6575 40.9343 37.5643 40.838 37.4865L40.842 37.4848Z" fill="white"/>
<path d="M3.41602 35.0717H3.42402C4.08402 35.0717 4.68002 35.295 5.11202 35.6567C5.79202 36.2183 6.72602 36.5633 7.75802 36.5633C8.79002 36.5633 9.72602 36.2167 10.404 35.655L10.884 35.255C11.2071 34.9891 11.6429 34.8399 12.097 34.8399C12.5511 34.8399 12.987 34.9891 13.31 35.255L13.79 35.655C14.462 36.2167 15.39 36.5633 16.418 36.5633H16.438H16.436H16.442C17.466 36.5633 18.394 36.2217 19.07 35.6667L19.594 35.2417C19.9195 34.9737 20.3594 34.8244 20.8169 34.8266C21.2745 34.8288 21.7122 34.9823 22.034 35.2533L22.502 35.6433C23.178 36.2083 24.114 36.56 25.148 36.5617H25.168C26.194 36.5617 27.122 36.215 27.794 35.6533L28.262 35.2633C28.5851 34.9974 29.0209 34.8482 29.475 34.8482C29.9291 34.8482 30.365 34.9974 30.688 35.2633L31.168 35.6633C31.848 36.225 32.782 36.57 33.814 36.57C34.846 36.57 35.782 36.2233 36.46 35.6617L36.94 35.2617C37.2631 34.9957 37.6989 34.8466 38.153 34.8466C38.6071 34.8466 39.043 34.9957 39.366 35.2617C39.548 35.4117 39.798 35.5033 40.074 35.5033H40.096C40.2277 35.5033 40.358 35.481 40.479 35.4377C40.6 35.3945 40.7092 35.3312 40.8 35.2517C40.8956 35.1733 40.9714 35.08 41.0232 34.9769C41.075 34.8739 41.1017 34.7634 41.1017 34.6517C41.1017 34.54 41.075 34.4294 41.0232 34.3264C40.9714 34.2234 40.8956 34.13 40.8 34.0517C40.12 33.49 39.186 33.145 38.154 33.145C37.122 33.145 36.186 33.4917 35.508 34.0533L35.028 34.4533C34.705 34.7193 34.2691 34.8684 33.815 34.8684C33.3609 34.8684 32.9251 34.7193 32.602 34.4533L32.122 34.0533C31.442 33.4917 30.508 33.1467 29.476 33.1467C28.444 33.1467 27.508 33.4933 26.83 34.055L26.362 34.445C26.0397 34.7102 25.6049 34.8587 25.152 34.8583H25.14C24.9154 34.8585 24.693 34.821 24.4861 34.748C24.2792 34.675 24.0921 34.568 23.936 34.4333L23.466 34.0417C22.76 33.46 21.8069 33.1341 20.814 33.135C19.786 33.135 18.854 33.4767 18.174 34.0317L17.664 34.4567C17.341 34.7226 16.9051 34.8718 16.451 34.8718C15.9969 34.8718 15.5611 34.7226 15.238 34.4567L14.758 34.0567C14.078 33.495 13.144 33.1483 12.11 33.1483C11.076 33.1483 10.142 33.495 9.46202 34.0567L8.98202 34.4567C8.65895 34.7226 8.22313 34.8718 7.76902 34.8718C7.3149 34.8718 6.87908 34.7226 6.55602 34.4567C5.75202 33.7967 4.64602 33.3883 3.42602 33.3883C2.20602 33.3883 1.10202 33.7967 0.296016 34.4567C0.199234 34.5344 0.122252 34.6276 0.0696712 34.7307C0.0170905 34.8338 -0.0100098 34.9447 -0.0100098 35.0567C-0.0100098 35.1687 0.0170905 35.2796 0.0696712 35.3827C0.122252 35.4857 0.199234 35.5789 0.296016 35.6567C0.485157 35.8166 0.742563 35.9077 1.01202 35.91H1.02002C1.28508 35.9107 1.53966 35.8238 1.72802 35.6683C2.15002 35.3 2.74202 35.07 3.40202 35.07H3.41202L3.41602 35.0717Z" fill="white"/>
</g>
<defs>
<clipPath id="clip0_18_25">
<rect width="42" height="40" fill="white"/>
</clipPath>
</defs>
</svg>
