<svg width="39" height="27" viewBox="0 0 39 27" fill="none" xmlns="http://www.w3.org/2000/svg">
<path d="M34.75 25.7499C34.75 26.0814 34.6117 26.3994 34.3656 26.6338C34.1194 26.8682 33.7856 26.9999 33.4375 26.9999H9.81251C9.46442 26.9999 9.13058 26.8682 8.88444 26.6338C8.63829 26.3994 8.50001 26.0814 8.50001 25.7499C8.50001 25.4184 8.63829 25.1005 8.88444 24.866C9.13058 24.6316 9.46442 24.4999 9.81251 24.4999H33.4375C33.7856 24.4999 34.1194 24.6316 34.3656 24.866C34.6117 25.1005 34.75 25.4184 34.75 25.7499ZM32.125 7.62493H23.2328L16.1945 0.328053C16.1347 0.264283 16.0613 0.213239 15.9794 0.178242C15.8974 0.143245 15.8086 0.125079 15.7188 0.124928H12.9461C12.6339 0.12083 12.3254 0.189951 12.0479 0.326194C11.7704 0.462438 11.5323 0.66162 11.3547 0.906178C11.17 1.14575 11.0482 1.424 10.9997 1.71762C10.9512 2.01123 10.9773 2.31165 11.0758 2.59368L12.8477 7.62493H8.81173L5.72736 4.09368C5.66396 4.02468 5.58574 3.96944 5.498 3.9317C5.41026 3.89396 5.31504 3.8746 5.21876 3.87493H2.39689C2.0887 3.87371 1.78445 3.94085 1.50823 4.07103C1.23201 4.20121 0.991411 4.39085 0.805482 4.62493C0.623228 4.85955 0.501526 5.13175 0.450223 5.41948C0.39892 5.70721 0.419456 6.00241 0.51017 6.28118L2.80704 13.6093C3.16616 14.7724 3.91232 15.7929 4.93316 16.5171C5.954 17.2414 7.19426 17.6301 8.4672 17.6249H37.375C37.5491 17.6249 37.716 17.5591 37.8391 17.4419C37.9621 17.3247 38.0313 17.1657 38.0313 16.9999V13.2499C38.0313 11.7581 37.409 10.3273 36.3014 9.27245C35.1937 8.21756 33.6914 7.62493 32.125 7.62493Z" fill="white"/>
</svg>
