<svg width="41" height="40" viewBox="0 0 41 40" fill="none" xmlns="http://www.w3.org/2000/svg">
<path d="M38.8778 34.1274C40.6142 31.7222 40.6636 29.7113 40.6636 29.7113C40.6636 29.7113 39.6762 29.1042 38.807 28.5668V21.8605L32.2772 15.7689V11.5591C32.3613 11.5317 32.4461 11.5061 32.5276 11.469C32.9187 11.6469 33.3463 11.7392 33.7793 11.7393C35.4356 11.7393 36.7835 10.4511 36.7835 8.86895C36.7835 7.28678 35.4356 5.99855 33.7793 5.99855C33.3474 5.99855 32.9275 6.08993 32.5276 6.26885C32.1363 6.09143 31.7088 5.99912 31.2758 5.99855C29.49 5.99855 28.6622 6.98006 28.3798 7.72322C27.8254 7.81201 27.3218 8.08584 26.9582 8.49618C26.5947 8.90651 26.3947 9.42682 26.3937 9.96484C26.3937 10.0006 26.401 10.0338 26.4037 10.069C26.357 10.0946 26.3129 10.1291 26.2675 10.1591L24.7668 8.75776V6.49441C25.0701 6.46263 25.3662 6.38408 25.6433 6.26182C26.0432 6.44074 26.4631 6.53212 26.8951 6.53212C28.5514 6.53212 29.8993 5.24389 29.8993 3.66172C29.8993 2.07955 28.5507 0.790039 26.8944 0.790039C26.4678 0.790039 26.0405 0.883333 25.6427 1.06098C25.2511 0.884292 24.8238 0.791815 24.3909 0.790039C22.6058 0.790039 21.7773 1.77091 21.4949 2.51343C21.1251 2.57329 20.7754 2.71606 20.4743 2.93007C20.1732 3.14408 19.9293 3.42326 19.7625 3.74479C19.1698 3.95343 18.6176 4.25488 18.1282 4.63683L17.7563 4.92439V7.48487L14.0432 7.04204L8.72243 8.31174V10.4038L7.47069 10.7029V12.7943L6.21895 13.0934V14.3803C5.92322 14.4047 5.62979 14.4499 5.34106 14.5158C5.32971 14.5184 5.32103 14.5254 5.31035 14.5286C5.29833 14.5318 5.28632 14.5318 5.27497 14.5356C5.12676 14.588 1.64258 15.8571 0.635175 19.1358C0.635175 19.1358 1.69265 23.2695 4.64342 27.7387C6.26568 30.1957 7.48404 33.1779 8.23576 35.2968H0.607803V39.1308H40.6636V35.2968H38.1354C38.3383 34.9294 38.582 34.5377 38.8778 34.1274ZM38.1394 22.4509V23.0983L37.847 22.8586V22.4938L23.4523 10.324V11.0454L22.9676 10.6473L21.8874 10.5182V9.81723L23.9316 10.0613L38.1394 22.4509ZM19.697 17.5952V18.1779C19.1723 17.9409 18.6509 17.7121 18.1322 17.4891V16.9907L20.2084 17.2386L38.1387 27.8684V28.1566L37.8517 27.9809V27.8275L19.697 17.5952ZM36.7221 28.8007V29.1911L34.1151 27.9738V27.2486C35.0871 27.8192 35.967 28.3445 36.7221 28.8007ZM33.802 27.0652V27.8275L32.6538 27.2908V26.3987C33.0483 26.6268 33.4315 26.8492 33.802 27.0652ZM32.3407 26.2185V27.1451L29.4813 25.8095V24.6037C30.4794 25.1578 31.4394 25.6996 32.3407 26.2185ZM29.1682 24.4306V25.6638L27.9592 25.099V23.7692C28.3685 23.9909 28.7717 24.2108 29.1682 24.4306ZM27.6468 23.598V24.9526L24.2467 23.3647V21.8094C25.4017 22.3998 26.5419 23.0011 27.6468 23.598ZM23.9336 21.6496V23.219L22.5777 22.5858V20.9697C23.031 21.1947 23.4837 21.4202 23.9336 21.6496ZM18.5715 20.7148V19.0828C19.7925 19.6272 21.0302 20.2106 22.2646 20.817V22.4394L18.5715 20.7148ZM18.7017 22.495C18.6589 22.4976 18.6115 22.4976 18.5721 22.5021V22.4388L18.7017 22.495ZM13.9704 15.8603C12.9778 15.5105 11.9696 15.2024 10.9489 14.9369L20.2031 16.0418L29.243 21.842L20.4982 16.6584L13.9704 15.8603ZM17.6188 16.9293L16.789 16.928C16.6748 16.8814 16.5613 16.8348 16.4479 16.7894L17.6188 16.9293ZM10.2879 14.2142L8.99081 14.5241C8.76917 14.4883 8.55887 14.4647 8.34725 14.4391L11.5811 13.6672L18.8786 14.5382H13.0057L10.2879 14.2142ZM37.8403 26.5891V26.1923L20.9488 14.9324V15.7516L20.5088 15.4692L20.4428 15.427L19.3839 15.3005V14.5989L21.4508 14.8455L38.1394 26.0632V26.7808L37.8403 26.5891ZM37.8136 24.7079V24.2664L22.2005 12.6346V13.3956L21.7045 13.0359L20.6357 12.9087V12.2084L22.6912 12.4538L38.1394 24.2574V24.9437L37.8136 24.7079ZM31.2758 14.834L29.0494 12.7554C29.8318 12.7892 30.6036 13.0825 31.2758 13.7088V14.834ZM28.7724 8.65041H29.2036L29.267 8.24145C29.2757 8.18905 29.4873 6.95641 31.2758 6.95641C31.621 6.95641 31.9575 7.04651 32.2759 7.22352L32.5276 7.36346L32.7793 7.22352C33.0818 7.05072 33.427 6.9585 33.7793 6.95641C34.3096 6.95641 34.8182 7.15768 35.1936 7.51608C35.5691 7.87449 35.7807 8.36077 35.7821 8.86831C35.7807 9.37584 35.5691 9.86213 35.1936 10.2205C34.8182 10.5789 34.3096 10.7802 33.7793 10.7802C33.4271 10.7784 33.0818 10.6864 32.7793 10.5137L32.5276 10.3738L32.2759 10.5137C32.1798 10.5668 32.0803 10.5994 31.9815 10.6358L31.9741 10.6294C31.1076 9.8217 30.0415 9.39485 28.8932 9.39485C28.4125 9.39485 27.9258 9.47664 27.4478 9.62425C27.5261 9.34514 27.6982 9.09848 27.9376 8.92244C28.1771 8.7464 28.4704 8.65079 28.7724 8.65041ZM28.8925 10.3546C29.7283 10.3546 30.5588 10.6498 31.2752 11.3176V12.5132C30.2771 11.5834 29.0608 11.3873 27.9145 11.6965L27.0232 10.8646C27.6187 10.5482 28.2536 10.3546 28.8925 10.3546ZM21.8874 3.44062L22.3114 3.43551L22.3821 3.03613C22.4055 2.90514 22.6598 1.74854 24.3909 1.74854C24.7429 1.75027 25.088 1.84229 25.3903 2.01501L25.6427 2.15623L25.895 2.01501C26.1973 1.84229 26.5424 1.75027 26.8944 1.74854C27.4247 1.74854 27.9333 1.94981 28.3087 2.30821C28.6841 2.66662 28.8958 3.1529 28.8972 3.66044C28.8958 4.16797 28.6841 4.65426 28.3087 5.01266C27.9333 5.37107 27.4247 5.57234 26.8944 5.57233C26.5421 5.57034 26.1968 5.47811 25.8943 5.30523L25.6427 5.16593L25.391 5.30587C25.1976 5.41291 24.9861 5.48666 24.7661 5.52377V4.97742L24.463 4.69562C23.6599 3.94607 22.6845 3.52944 21.6311 3.47193C21.7152 3.45338 21.8011 3.44289 21.8874 3.44062ZM18.7584 5.38191C19.5442 4.77358 20.4668 4.4183 21.3827 4.4183C22.2186 4.4183 23.049 4.71415 23.7654 5.38191V6.57748C22.2633 5.17743 20.2605 5.4145 18.7584 6.57748V5.38191ZM23.7654 7.77242V8.20183L18.9587 7.62864C20.4347 6.59474 22.3287 6.43371 23.7654 7.77242ZM9.3907 8.8108L14.0839 7.69063L23.9249 8.86511L29.2363 13.8238L24.224 9.45236L14.0432 8.23697L9.39003 9.3482V8.8108H9.3907ZM9.3907 10.0064L14.0839 8.88556L21.3807 9.75652H15.5092L12.7921 9.43191L9.3907 10.2441V10.0064ZM8.13896 11.2019L12.8322 10.0811L22.6845 11.2575L29.2964 16.6833L22.9609 11.8422L12.7921 10.6281L8.13896 11.7393V11.2019ZM8.13896 12.3975L12.8322 11.2767L20.1303 12.1477H14.2588L11.5397 11.8231L8.13896 12.6352V12.3975ZM6.88721 13.5925L11.5811 12.4723L21.4448 13.6493L29.2998 19.3403L21.6985 14.2315L11.5404 13.0186L6.88788 14.1299V13.5925H6.88721ZM5.72626 27.039C3.25282 23.2931 2.17131 20.102 1.93031 19.3301C2.49176 17.7364 3.83029 16.7363 4.75424 16.2066C4.65677 18.0591 4.70551 21.9167 6.24632 26.2287C6.78574 27.7374 7.21433 29.0908 7.55948 30.3005C7.02207 29.1937 6.41122 28.0774 5.72626 27.039ZM7.46535 25.8032C5.81572 21.187 5.97661 17.0201 6.08743 15.6756C6.37882 15.6377 6.6726 15.6194 6.96666 15.6206C9.75587 15.6206 13.8769 17.013 18.2584 18.9447V20.5684L17.1922 20.0707L17.1996 21.8452L18.2584 22.3033V22.5692C17.9773 22.6676 17.8925 22.849 18.0775 23.0944C18.462 23.5999 19.8286 24.1826 21.1351 24.3935C21.9969 24.5341 22.6064 24.4753 22.8174 24.2747L23.9336 24.7571V24.7897C23.8121 24.8721 23.7954 24.9955 23.9136 25.1546C24.2347 25.5878 25.4137 26.1169 26.5499 26.3354C27.0566 26.4332 27.4612 26.4485 27.7329 26.4013L28.9252 26.9169C28.9108 26.9978 28.9299 27.0808 28.9786 27.1483C29.2584 27.5879 30.3285 28.1445 31.376 28.3892C31.876 28.5068 32.2746 28.5291 32.5282 28.4755L33.581 28.9311C33.5748 28.9926 33.5934 29.0542 33.6331 29.103C33.8915 29.4646 34.8782 29.9458 35.8435 30.1746C36.2034 30.2608 36.5085 30.2992 36.7361 30.2953L37.8517 30.7778L37.8523 29.7196L37.0345 29.3375V28.9911C37.8 29.4548 38.5618 29.924 39.3197 30.3989C39.2109 30.8947 38.8724 31.9344 37.8256 33.3849C37.3881 33.9886 37.0072 34.6282 36.6874 35.2962H10.0076C9.71315 33.3191 9.03287 30.1873 7.46535 25.8032ZM4.49388 9.01592C4.38039 8.10087 5.91453 7.55069 5.91453 7.55069C4.42979 7.47784 4.04125 8.53092 4.04125 8.53092C2.79885 8.81975 2.86828 9.65236 2.86828 9.65236C3.40036 8.77118 4.49388 9.01592 4.49388 9.01592ZM4.83502 4.22723C5.26896 3.40548 6.86652 3.75565 6.86652 3.75565C5.67085 2.91153 4.73889 3.5844 4.73889 3.5844C3.53588 3.17032 3.11129 3.90006 3.11129 3.90006C4.06462 3.44573 4.83502 4.22723 4.83502 4.22723Z" fill="white"/>
</svg>
