<svg width="48" height="55" viewBox="0 0 48 55" fill="none" xmlns="http://www.w3.org/2000/svg">
<path d="M23.9902 12.0605C24.1142 13.0318 24.2521 13.9415 24.4092 14.793C25.0726 18.3899 26.088 21.0771 27.8516 23.0527C29.6275 25.0422 32.0529 26.1895 35.2764 26.9355C36.1882 27.1466 37.1735 27.3254 38.2363 27.4844C37.1735 27.6434 36.1882 27.8241 35.2764 28.0352C32.053 28.7811 29.6275 29.9276 27.8516 31.917C26.0879 33.8927 25.0726 36.5807 24.4092 40.1777C24.2522 41.0287 24.1141 41.9376 23.9902 42.9082C23.8661 41.9374 23.7285 41.0279 23.5713 40.1768C22.9069 36.5798 21.891 33.8926 20.127 31.917C18.3506 29.9276 15.9248 28.7812 12.7012 28.0352C11.7889 27.8241 10.8036 27.6434 9.74023 27.4844C10.8035 27.3254 11.789 27.1466 12.7012 26.9355C15.9249 26.1895 18.3506 25.0421 20.127 23.0527C21.8909 21.0771 22.9069 18.3899 23.5713 14.793C23.7286 13.9415 23.866 13.0318 23.9902 12.0605Z" stroke="#FC3314" stroke-width="2"/>
</svg>
